<svg width="65" height="64" viewBox="0 0 65 64" fill="none" xmlns="http://www.w3.org/2000/svg">
<path d="M0.5 12C0.5 5.37258 5.87258 0 12.5 0H52.5C59.1274 0 64.5 5.37258 64.5 12V52C64.5 58.6274 59.1274 64 52.5 64H12.5C5.87258 64 0.5 58.6274 0.5 52V12Z" fill="white"/>
<g clip-path="url(#clip0_12_15)">
<path d="M27.1668 48C30.1108 48 32.5005 45.6102 32.5005 42.6662V37.3325H27.1668C24.2228 37.3325 21.833 39.7222 21.833 42.6662C21.833 45.6102 24.2228 48 27.1668 48Z" fill="#0ACF83"/>
<path d="M21.833 32C21.833 29.056 24.2228 26.6662 27.1668 26.6662H32.5005V37.3324H27.1668C24.2228 37.3337 21.833 34.9439 21.833 32Z" fill="#A259FF"/>
<path d="M21.833 21.3338C21.833 18.3898 24.2228 16 27.1668 16H32.5005V26.6662H27.1668C24.2228 26.6662 21.833 24.2778 21.833 21.3338Z" fill="#F24E1E"/>
<path d="M32.4992 16H37.833C40.777 16 43.1668 18.3898 43.1668 21.3338C43.1668 24.2778 40.777 26.6662 37.833 26.6662H32.4992V16Z" fill="#FF7262"/>
<path d="M43.1668 32C43.1668 34.944 40.777 37.3338 37.833 37.3338C34.889 37.3338 32.4992 34.944 32.4992 32C32.4992 29.056 34.889 26.6662 37.833 26.6662C40.777 26.6662 43.1668 29.056 43.1668 32Z" fill="#1ABCFE"/>
</g>
<defs>
<clipPath id="clip0_12_15">
<rect width="21.3338" height="32" fill="white" transform="translate(21.833 16)"/>
</clipPath>
</defs>
</svg>
