<svg width="16" height="16" viewBox="0 0 16 16" fill="none" xmlns="http://www.w3.org/2000/svg">
<g id="flame 1">
<g id="Group">
<g id="Group_2">
<path id="Vector" d="M12.3211 7.7925C12.2493 8.83459 11.6551 9.56619 10.969 9.87625C10.2416 10.2049 9.50627 10.0236 9.13916 9.425C8.5381 8.44481 8.95111 7.76263 9.3505 7.10288C9.80335 6.35478 10.3167 5.50684 9.82434 3.85791C9.43567 2.55613 8.67449 1.46322 7.56189 0.609531C7.21505 0.343437 6.88611 0.143312 6.61916 0C6.99201 0.907562 7.47686 2.59641 6.9704 4.46228C6.64918 5.64581 5.80023 6.54269 4.97922 7.41003C3.89789 8.55247 2.77968 9.73378 2.77968 11.6213C2.77968 13.0855 3.28983 14.2519 4.29591 15.0882C5.05778 15.7214 5.8352 15.968 5.84295 15.97H7.69803L7.6592 15.9692C7.65205 15.9637 6.94531 15.4058 6.93314 14.766C6.92747 14.467 7.08439 14.1802 7.39956 13.9135C7.87295 13.5129 8.13314 13.0816 8.19503 12.5949C8.23289 12.2973 8.19462 11.9826 8.0783 11.643C8.86348 11.9723 9.67567 12.6913 9.9509 13.5838C10.1981 14.3853 9.96943 15.2097 9.2903 15.97H11.3205C12.6504 14.9281 13.399 13.6796 13.5458 12.2591C13.7329 10.4479 12.9048 8.742 12.3211 7.7925Z" fill="black"/>
</g>
</g>
<g id="Group_3">
<g id="Group_4">
<path id="Vector_2" d="M7.69805 15.97L9.26357 16C9.27265 15.99 9.28135 15.98 9.29029 15.97H7.69805Z" fill="black"/>
</g>
</g>
</g>
</svg>
