<svg width="65" height="65" viewBox="0 0 65 65" fill="none" xmlns="http://www.w3.org/2000/svg">
<path d="M0.5 12.8551C0.5 6.22766 5.87258 0.855072 12.5 0.855072H52.5C59.1274 0.855072 64.5 6.22766 64.5 12.8551V52.8551C64.5 59.4825 59.1274 64.8551 52.5 64.8551H12.5C5.87258 64.8551 0.5 59.4825 0.5 52.8551V12.8551Z" fill="white"/>
<path d="M47.6474 22.0482L43.2838 17.6809C42.1844 16.5805 40.2717 16.5784 39.168 17.683L19.6197 37.4242C19.5331 37.5116 19.4705 37.619 19.4364 37.7369L16.5274 47.9274C16.455 48.1812 16.526 48.4548 16.7128 48.6418C16.8513 48.7804 17.0366 48.8551 17.227 48.8551C17.2938 48.8551 17.3613 48.8458 17.4266 48.8273L27.6084 45.9158C27.7263 45.8817 27.8335 45.8191 27.9209 45.7323L47.6474 26.1653C48.1972 25.6151 48.4997 24.8844 48.4997 24.1068C48.4997 23.3291 48.1972 22.5984 47.6474 22.0482Z" fill="black"/>
<path d="M24.6945 39.6276L23.6914 37.6207C23.5678 37.3742 23.3164 37.2187 23.0408 37.2187H21.8761L35.9944 22.9734L38.6715 25.6505L24.6945 39.6276Z" fill="#FFCA28"/>
<path d="M27.7298 41.6591L25.7229 40.656L39.6999 26.679L42.377 29.3561L28.1318 43.4744V42.3097C28.1318 42.0341 27.9762 41.7827 27.7298 41.6591Z" fill="#FFCA28"/>
<path d="M40.1942 18.7357C40.744 18.186 41.7013 18.186 42.251 18.7357L46.6147 23.0994C46.8895 23.3742 47.0408 23.7393 47.0408 24.1278C47.0408 24.5163 46.8895 24.8813 46.6168 25.154L43.41 28.3322L37.0182 21.9404L40.1942 18.7357Z" fill="#D32F2F"/>
<path d="M24.1744 41.5091C24.1041 41.4739 23.8843 41.2541 23.8491 41.1838L22.5956 38.6767H20.6844L19.0657 44.3431L21.0943 46.27L26.6816 44.6739V42.7627L24.1744 41.5091Z" fill="#F2F2F2"/>
<path d="M21.0942 46.27L19.0656 44.3431L19.2332 43.7562L18.2859 47.0723L21.602 46.1249L21.0942 46.27Z" fill="black"/>
<path opacity="0.1" d="M26.6815 42.7627L24.1744 41.5092C24.1041 41.474 24.0667 41.4015 24.0118 41.3466L18.2859 47.0724L26.6815 44.674V42.7627Z" fill="black"/>
<path opacity="0.1" d="M44.4372 20.9211L40.2184 25.1398L43.4144 28.3358L46.6212 25.1576C46.8939 24.8849 47.0452 24.5198 47.0452 24.1313C47.0452 23.7428 46.8939 23.3778 46.6191 23.1029L44.4372 20.9211Z" fill="black"/>
<path opacity="0.1" d="M27.7341 41.6625L25.7272 40.6594L39.7042 26.6824L42.3813 29.3595L28.1361 43.4778V42.3131C28.1361 42.0375 27.9805 41.7861 27.7341 41.6625Z" fill="black"/>
<path d="M47.6474 22.0482L43.2838 17.6809C42.1844 16.5805 40.2717 16.5784 39.168 17.683L19.6197 37.4242C19.5331 37.5116 19.4705 37.619 19.4364 37.7369L16.5274 47.9274C16.455 48.1812 16.526 48.4548 16.7128 48.6418C16.8513 48.7804 17.0366 48.8551 17.227 48.8551C17.2938 48.8551 17.3613 48.8458 17.4266 48.8273L27.6084 45.9158C27.7263 45.8817 27.8335 45.8191 27.9209 45.7323L47.6474 26.1653C48.1972 25.6151 48.4997 24.8844 48.4997 24.1068C48.4997 23.3291 48.1972 22.5984 47.6474 22.0482Z" fill="url(#paint0_linear_55_12)"/>
<defs>
<linearGradient id="paint0_linear_55_12" x1="23.0913" y1="29.8767" x2="42.0045" y2="38.6924" gradientUnits="userSpaceOnUse">
<stop stop-color="white" stop-opacity="0.2"/>
<stop offset="1" stop-color="white" stop-opacity="0"/>
</linearGradient>
</defs>
</svg>
