<svg width="65" height="65" viewBox="0 0 65 65" fill="none" xmlns="http://www.w3.org/2000/svg">
<path d="M0.5 12.4881C0.5 5.86065 5.87258 0.488068 12.5 0.488068H52.5C59.1274 0.488068 64.5 5.86065 64.5 12.4881V52.4881C64.5 59.1155 59.1274 64.4881 52.5 64.4881H12.5C5.87258 64.4881 0.5 59.1155 0.5 52.4881V12.4881Z" fill="white"/>
<path d="M43.0984 48.4881H21.9018C18.6881 48.4881 16.0898 45.8898 16.0898 42.6761V22.3C16.0898 19.0864 18.6881 16.4881 21.9018 16.4881H43.0984C46.3121 16.4881 48.9104 19.0864 48.9104 22.3V42.6761C48.9104 45.8898 46.3121 48.4881 43.0984 48.4881Z" fill="#26C9FF"/>
<path d="M42.5787 47.1206H22.4215C19.6864 47.1206 17.4574 44.8915 17.4574 42.1428V22.8334C17.4574 20.0847 19.6864 17.8556 22.4215 17.8556H42.5651C45.3138 17.8556 47.5292 20.0847 47.5292 22.8197V42.1428C47.5428 44.8915 45.3138 47.1206 42.5787 47.1206Z" fill="#062026"/>
<path d="M24.0215 23.9821C24.0215 23.8864 24.2129 23.818 24.3223 23.818C25.1975 23.777 26.4967 23.7496 27.8505 23.7496C31.6385 23.7496 33.1155 25.8282 33.1155 28.4949C33.1155 31.9684 30.5992 33.459 27.5086 33.459C26.989 33.459 26.8112 33.4317 26.442 33.4317V38.6829C26.442 38.7923 26.4009 38.847 26.2779 38.847H24.1856C24.0762 38.847 24.0215 38.806 24.0215 38.6829V23.9821ZM26.4556 31.2436C26.7702 31.271 27.0163 31.271 27.5633 31.271C29.1633 31.271 30.6676 30.7103 30.6676 28.5359C30.6676 26.7992 29.5873 25.924 27.7685 25.924C27.2215 25.924 26.7018 25.9513 26.4556 25.965V31.2436ZM38.2163 29.6163C37.136 29.6163 36.7668 30.1633 36.7668 30.6146C36.7668 31.1069 37.0129 31.4487 38.4625 32.2009C40.6095 33.2402 41.2796 34.2385 41.2796 35.7017C41.2796 37.8898 39.6112 39.0658 37.3548 39.0658C36.165 39.0658 35.1394 38.8197 34.5514 38.4778C34.4556 38.4368 34.442 38.3684 34.442 38.259V36.2487C34.442 36.112 34.5103 36.071 34.6061 36.1393C35.4676 36.7 36.4522 36.9462 37.3548 36.9462C38.4351 36.9462 38.8864 36.4949 38.8864 35.8795C38.8864 35.3872 38.5719 34.9496 37.1907 34.2385C35.2488 33.3086 34.442 32.365 34.442 30.7923C34.442 29.0282 35.8232 27.565 38.2163 27.565C39.3924 27.565 40.2129 27.7428 40.6642 27.9479C40.7736 28.0163 40.8009 28.1257 40.8009 28.2214V30.0949C40.8009 30.2043 40.7326 30.2727 40.5958 30.2317C39.9941 29.8487 39.1052 29.6163 38.2163 29.6163Z" fill="#D9F5FF"/>
</svg>
