<svg width="65" height="65" viewBox="0 0 65 65" fill="none" xmlns="http://www.w3.org/2000/svg">
<g id="Group 69">
<path id="Rectangle 13" d="M0.5 12.4881C0.5 5.86065 5.87258 0.488068 12.5 0.488068H52.5C59.1274 0.488068 64.5 5.86065 64.5 12.4881V52.4881C64.5 59.1155 59.1274 64.4881 52.5 64.4881H12.5C5.87258 64.4881 0.5 59.1155 0.5 52.4881V12.4881Z" fill="white"/>
<g id="Group 21">
<g id="Group">
<path id="Vector" d="M48.5 32.4881C48.5 28.7076 47.1812 25.2298 44.9806 22.4888L36.9363 36.4219H48.0101C48.3296 35.1629 48.5 33.8451 48.5 32.4881Z" fill="black"/>
<path id="Vector_2" d="M38.125 30.6131L43.6568 21.0316C40.7724 18.2219 36.8352 16.4881 32.5 16.4881C31.6761 16.4881 30.8666 16.5508 30.0758 16.6715L38.125 30.6131Z" fill="black"/>
<path id="Vector_3" d="M26.875 34.3631L21.3432 43.9444C24.2276 46.7542 28.1648 48.4881 32.5 48.4881C33.324 48.4881 34.1334 48.4254 34.9242 48.3047L26.875 34.3631Z" fill="black"/>
<path id="Vector_4" d="M31.3113 38.2969L36.8483 47.8873C41.6842 46.5199 45.5965 42.9306 47.4082 38.2969L31.3113 38.2969Z" fill="black"/>
<path id="Vector_5" d="M33.6887 26.6792L28.1517 17.0888C23.3158 18.4562 19.4035 22.0455 17.5917 26.6792H33.6887Z" fill="black"/>
<path id="Vector_6" d="M26.0631 32.0193L28.0638 28.5542H16.9899C16.6704 29.8132 16.5 31.1311 16.5 32.4881C16.5 36.2686 17.8188 39.7463 20.0194 42.4874L26.0631 32.0193Z" fill="black"/>
</g>
</g>
</g>
</svg>
