<svg width="477" height="276" viewBox="0 0 477 276" fill="none" xmlns="http://www.w3.org/2000/svg">
<g filter="url(#filter0_dd_1_44)">
<path d="M26.0051 260.081L26.0369 260.843C26.5404 260.25 27.2196 259.954 28.0745 259.954C29.0351 259.954 29.6889 260.322 30.0359 261.059C30.2644 260.729 30.5606 260.462 30.9246 260.259C31.2927 260.056 31.7265 259.954 32.2258 259.954C33.7323 259.954 34.4983 260.752 34.5237 262.347V266.949H33.3494V262.417C33.3494 261.926 33.2372 261.56 33.0129 261.319C32.7887 261.074 32.412 260.951 31.8831 260.951C31.4472 260.951 31.0854 261.082 30.7976 261.344C30.5098 261.602 30.3427 261.952 30.2961 262.392V266.949H29.1155V262.449C29.1155 261.45 28.6267 260.951 27.6492 260.951C26.879 260.951 26.3521 261.279 26.0686 261.935V266.949H24.8943V260.081H26.0051ZM35.99 263.452C35.99 262.779 36.1212 262.174 36.3835 261.636C36.6501 261.099 37.0183 260.684 37.488 260.392C37.962 260.1 38.5015 259.954 39.1067 259.954C40.0419 259.954 40.7973 260.278 41.3728 260.925C41.9526 261.573 42.2424 262.434 42.2424 263.509V263.591C42.2424 264.26 42.1134 264.861 41.8552 265.394C41.6013 265.923 41.2353 266.336 40.7571 266.632C40.2831 266.928 39.7372 267.076 39.1194 267.076C38.1884 267.076 37.433 266.753 36.8533 266.105C36.2778 265.458 35.99 264.601 35.99 263.534V263.452ZM37.1707 263.591C37.1707 264.353 37.3463 264.965 37.6975 265.426C38.053 265.887 38.5269 266.118 39.1194 266.118C39.7161 266.118 40.19 265.885 40.5413 265.42C40.8925 264.95 41.0681 264.294 41.0681 263.452C41.0681 262.699 40.8883 262.089 40.5286 261.624C40.1731 261.154 39.6991 260.919 39.1067 260.919C38.5269 260.919 38.0593 261.15 37.7039 261.611C37.3484 262.072 37.1707 262.732 37.1707 263.591ZM44.8259 260.081L44.864 260.944C45.3888 260.284 46.0743 259.954 46.9207 259.954C48.3722 259.954 49.1042 260.773 49.1169 262.411V266.949H47.9426V262.404C47.9384 261.909 47.8241 261.543 47.5999 261.306C47.3798 261.069 47.0349 260.951 46.5652 260.951C46.1843 260.951 45.85 261.052 45.5623 261.255C45.2745 261.459 45.0502 261.725 44.8894 262.055V266.949H43.7151V260.081H44.8259Z" fill="black"/>
<path d="M10.2756 233.338C10.2756 234.713 10.0407 235.735 9.57096 236.403C9.10123 237.072 8.36702 237.406 7.36832 237.406C6.38232 237.406 5.65234 237.081 5.17838 236.429C4.70442 235.773 4.45898 234.795 4.44205 233.496V231.928C4.44205 230.57 4.67692 229.561 5.14664 228.901C5.61637 228.24 6.3527 227.91 7.35563 227.91C8.3501 227.91 9.08219 228.23 9.55192 228.869C10.0216 229.504 10.2629 230.485 10.2756 231.814V233.338ZM9.10123 231.732C9.10123 230.737 8.96159 230.013 8.68229 229.561C8.40299 229.104 7.96077 228.875 7.35563 228.875C6.75472 228.875 6.31673 229.102 6.04166 229.554C5.7666 230.007 5.62483 230.703 5.61637 231.643V233.522C5.61637 234.52 5.76025 235.259 6.04801 235.737C6.34 236.211 6.78011 236.448 7.36832 236.448C7.94808 236.448 8.3776 236.224 8.6569 235.775C8.94043 235.326 9.08854 234.62 9.10123 233.655V231.732Z" fill="black"/>
<path d="M8.33952 192.353H7.15885V184.526L4.79118 185.396V184.33L8.15543 183.066H8.33952V192.353Z" fill="black"/>
<path d="M10.5358 147.427H4.48014V146.582L7.67936 143.028C8.15332 142.49 8.47916 142.054 8.6569 141.72C8.83886 141.381 8.92985 141.032 8.92985 140.673C8.92985 140.19 8.78385 139.795 8.49186 139.486C8.19987 139.177 7.81054 139.022 7.32389 139.022C6.73991 139.022 6.28499 139.189 5.95914 139.524C5.63753 139.854 5.47672 140.315 5.47672 140.907H4.30241C4.30241 140.057 4.57536 139.369 5.12125 138.844C5.67138 138.32 6.4056 138.057 7.32389 138.057C8.18294 138.057 8.86214 138.284 9.36149 138.737C9.86084 139.185 10.1105 139.784 10.1105 140.533C10.1105 141.443 9.53076 142.526 8.37125 143.783L5.89567 146.468H10.5358V147.427Z" fill="black"/>
<path d="M6.18766 97.3077H7.06998C7.62435 97.2992 8.06022 97.1532 8.3776 96.8697C8.69498 96.5862 8.85368 96.2032 8.85368 95.7208C8.85368 94.6375 8.31413 94.0958 7.23502 94.0958C6.72721 94.0958 6.32096 94.2418 6.01627 94.5338C5.71582 94.8215 5.56559 95.2045 5.56559 95.6827H4.39127C4.39127 94.9506 4.65788 94.3434 5.19108 93.8609C5.72851 93.3743 6.40983 93.131 7.23502 93.131C8.10677 93.131 8.7902 93.3616 9.28532 93.8228C9.78043 94.2841 10.028 94.9252 10.028 95.7462C10.028 96.1482 9.89681 96.5375 9.63444 96.9142C9.3763 97.2908 9.02295 97.5722 8.57438 97.7584C9.08219 97.9192 9.47363 98.1858 9.7487 98.5582C10.028 98.9306 10.1676 99.3855 10.1676 99.9229C10.1676 100.752 9.89681 101.41 9.35514 101.897C8.81347 102.384 8.10888 102.627 7.24137 102.627C6.37386 102.627 5.66715 102.392 5.12125 101.922C4.57959 101.453 4.30875 100.833 4.30875 100.063H5.48942C5.48942 100.549 5.64811 100.939 5.96549 101.231C6.28288 101.523 6.70817 101.669 7.24137 101.669C7.80843 101.669 8.24218 101.52 8.54264 101.224C8.8431 100.928 8.99332 100.503 8.99332 99.9483C8.99332 99.4109 8.82829 98.9983 8.49821 98.7105C8.16813 98.4228 7.69205 98.2747 7.06998 98.2662H6.18766V97.3077Z" fill="black"/>
<path d="M9.43766 54.4697H10.7199V55.4282H9.43766V57.5737H8.257V55.4282H4.0485V54.7363L8.18717 48.3315H9.43766V54.4697ZM5.38151 54.4697H8.257V49.9374L8.11735 50.1913L5.38151 54.4697Z" fill="black"/>
<path d="M5.01969 8.01346L5.48942 3.40506H10.2248V4.49051H6.486L6.2067 7.01053C6.6595 6.74393 7.17366 6.61063 7.74918 6.61063C8.59131 6.61063 9.25993 6.88992 9.75504 7.44852C10.2502 8.00288 10.4977 8.75402 10.4977 9.70193C10.4977 10.6541 10.2396 11.4052 9.7233 11.9554C9.21126 12.5013 8.49398 12.7742 7.57145 12.7742C6.75472 12.7742 6.08821 12.5478 5.57194 12.095C5.05566 11.6422 4.76155 11.0159 4.68961 10.2161H5.80045C5.87239 10.7451 6.06071 11.145 6.36539 11.4158C6.67008 11.6824 7.0721 11.8157 7.57145 11.8157C8.11735 11.8157 8.54476 11.6295 8.85368 11.2571C9.16683 10.8847 9.3234 10.3706 9.3234 9.71463C9.3234 9.09679 9.15413 8.60167 8.81559 8.22928C8.48128 7.85265 8.03483 7.66434 7.47623 7.66434C6.96419 7.66434 6.56217 7.77648 6.27018 8.00076L5.95914 8.25467L5.01969 8.01346Z" fill="black"/>
<path d="M98.5083 258.418V260.081H99.7905V260.989H98.5083V265.248C98.5083 265.523 98.5654 265.731 98.6797 265.87C98.7939 266.006 98.9886 266.073 99.2637 266.073C99.3991 266.073 99.5853 266.048 99.8223 265.997V266.949C99.5133 267.034 99.2129 267.076 98.9209 267.076C98.3962 267.076 98.0005 266.918 97.7339 266.6C97.4673 266.283 97.334 265.832 97.334 265.248V260.989H96.0835V260.081H97.334V258.418H98.5083ZM105.408 266.27C104.951 266.808 104.28 267.076 103.396 267.076C102.664 267.076 102.105 266.865 101.72 266.442C101.339 266.014 101.147 265.384 101.143 264.55V260.081H102.317V264.518C102.317 265.559 102.74 266.08 103.586 266.08C104.484 266.08 105.08 265.745 105.376 265.077V260.081H106.551V266.949H105.434L105.408 266.27ZM111.191 267.076C110.26 267.076 109.502 266.772 108.918 266.162C108.334 265.549 108.042 264.73 108.042 263.706V263.49C108.042 262.809 108.172 262.201 108.43 261.668C108.692 261.131 109.056 260.712 109.521 260.411C109.991 260.107 110.499 259.954 111.045 259.954C111.938 259.954 112.632 260.248 113.127 260.837C113.622 261.425 113.87 262.267 113.87 263.363V263.852H109.217C109.234 264.529 109.431 265.077 109.807 265.496C110.188 265.91 110.67 266.118 111.254 266.118C111.669 266.118 112.02 266.033 112.308 265.864C112.596 265.695 112.848 265.47 113.063 265.191L113.781 265.75C113.205 266.634 112.342 267.076 111.191 267.076ZM111.045 260.919C110.571 260.919 110.173 261.093 109.852 261.44C109.53 261.782 109.331 262.265 109.255 262.887H112.695V262.798C112.661 262.201 112.501 261.74 112.213 261.414C111.925 261.084 111.536 260.919 111.045 260.919Z" fill="black"/>
<path d="M166.88 265.331L168.2 260.081H169.375L167.375 266.949H166.423L164.753 261.744L163.128 266.949H162.176L160.183 260.081H161.351L162.703 265.223L164.303 260.081H165.249L166.88 265.331ZM173.424 267.076C172.493 267.076 171.736 266.772 171.152 266.162C170.568 265.549 170.276 264.73 170.276 263.706V263.49C170.276 262.809 170.405 262.201 170.663 261.668C170.925 261.131 171.289 260.712 171.755 260.411C172.225 260.107 172.732 259.954 173.278 259.954C174.171 259.954 174.865 260.248 175.36 260.837C175.855 261.425 176.103 262.267 176.103 263.363V263.852H171.45C171.467 264.529 171.664 265.077 172.041 265.496C172.421 265.91 172.904 266.118 173.488 266.118C173.903 266.118 174.254 266.033 174.542 265.864C174.829 265.695 175.081 265.47 175.297 265.191L176.014 265.75C175.439 266.634 174.575 267.076 173.424 267.076ZM173.278 260.919C172.804 260.919 172.407 261.093 172.085 261.44C171.763 261.782 171.564 262.265 171.488 262.887H174.929V262.798C174.895 262.201 174.734 261.74 174.446 261.414C174.159 261.084 173.769 260.919 173.278 260.919ZM177.182 263.458C177.182 262.404 177.432 261.558 177.931 260.919C178.431 260.276 179.084 259.954 179.893 259.954C180.697 259.954 181.333 260.229 181.803 260.779V257.199H182.978V266.949H181.898L181.841 266.213C181.372 266.789 180.718 267.076 179.88 267.076C179.084 267.076 178.435 266.75 177.931 266.099C177.432 265.447 177.182 264.596 177.182 263.547V263.458ZM178.356 263.591C178.356 264.37 178.517 264.979 178.839 265.42C179.16 265.86 179.605 266.08 180.172 266.08C180.917 266.08 181.46 265.745 181.803 265.077V261.922C181.452 261.275 180.912 260.951 180.185 260.951C179.609 260.951 179.16 261.173 178.839 261.617C178.517 262.062 178.356 262.72 178.356 263.591Z" fill="black"/>
<path d="M233.246 258.418V260.081H234.528V260.989H233.246V265.248C233.246 265.523 233.303 265.731 233.417 265.87C233.531 266.006 233.726 266.073 234.001 266.073C234.136 266.073 234.323 266.048 234.56 265.997V266.949C234.251 267.034 233.95 267.076 233.658 267.076C233.133 267.076 232.738 266.918 232.471 266.6C232.205 266.283 232.071 265.832 232.071 265.248V260.989H230.821V260.081H232.071V258.418H233.246ZM237.08 260.913C237.6 260.274 238.277 259.954 239.111 259.954C240.562 259.954 241.294 260.773 241.307 262.411V266.949H240.133V262.404C240.129 261.909 240.014 261.543 239.79 261.306C239.57 261.069 239.225 260.951 238.755 260.951C238.375 260.951 238.04 261.052 237.752 261.255C237.465 261.459 237.24 261.725 237.08 262.055V266.949H235.905V257.199H237.08V260.913ZM247.306 266.27C246.849 266.808 246.178 267.076 245.293 267.076C244.561 267.076 244.003 266.865 243.618 266.442C243.237 266.014 243.044 265.384 243.04 264.55V260.081H244.214V264.518C244.214 265.559 244.638 266.08 245.484 266.08C246.381 266.08 246.978 265.745 247.274 265.077V260.081H248.448V266.949H247.331L247.306 266.27Z" fill="black"/>
<path d="M296.114 266.949V260.989H295.028V260.081H296.114V259.377C296.114 258.64 296.311 258.071 296.704 257.669C297.098 257.267 297.654 257.066 298.374 257.066C298.644 257.066 298.913 257.102 299.18 257.174L299.116 258.126C298.917 258.088 298.706 258.069 298.481 258.069C298.101 258.069 297.806 258.181 297.599 258.405C297.392 258.625 297.288 258.943 297.288 259.358V260.081H298.754V260.989H297.288V266.949H296.114ZM303.375 261.135C303.198 261.105 303.005 261.09 302.798 261.09C302.028 261.09 301.505 261.418 301.23 262.074V266.949H300.056V260.081H301.198L301.217 260.875C301.602 260.261 302.148 259.954 302.855 259.954C303.083 259.954 303.257 259.984 303.375 260.043V261.135ZM305.737 266.949H304.562V260.081H305.737V266.949ZM304.467 258.259C304.467 258.069 304.524 257.908 304.639 257.777C304.757 257.646 304.931 257.58 305.159 257.58C305.388 257.58 305.561 257.646 305.68 257.777C305.798 257.908 305.857 258.069 305.857 258.259C305.857 258.45 305.798 258.609 305.68 258.735C305.561 258.862 305.388 258.926 305.159 258.926C304.931 258.926 304.757 258.862 304.639 258.735C304.524 258.609 304.467 258.45 304.467 258.259Z" fill="black"/>
<path d="M356.45 265.128C356.45 264.81 356.329 264.565 356.088 264.391C355.851 264.214 355.434 264.061 354.838 263.934C354.245 263.807 353.773 263.655 353.422 263.477C353.075 263.299 352.817 263.088 352.648 262.842C352.483 262.597 352.4 262.305 352.4 261.966C352.4 261.404 352.637 260.928 353.111 260.538C353.589 260.149 354.199 259.954 354.939 259.954C355.718 259.954 356.348 260.155 356.831 260.557C357.317 260.959 357.561 261.473 357.561 262.1H356.38C356.38 261.778 356.243 261.501 355.968 261.268C355.697 261.035 355.354 260.919 354.939 260.919C354.512 260.919 354.177 261.012 353.936 261.198C353.695 261.385 353.574 261.628 353.574 261.928C353.574 262.212 353.687 262.426 353.911 262.569C354.135 262.713 354.539 262.851 355.123 262.982C355.712 263.113 356.188 263.27 356.552 263.452C356.915 263.634 357.184 263.854 357.358 264.112C357.535 264.366 357.624 264.677 357.624 265.045C357.624 265.659 357.379 266.152 356.888 266.524C356.397 266.892 355.76 267.076 354.977 267.076C354.427 267.076 353.941 266.979 353.517 266.784C353.094 266.59 352.762 266.319 352.521 265.972C352.284 265.621 352.165 265.242 352.165 264.836H353.34C353.361 265.229 353.517 265.542 353.809 265.775C354.106 266.004 354.495 266.118 354.977 266.118C355.422 266.118 355.777 266.029 356.044 265.851C356.315 265.669 356.45 265.428 356.45 265.128ZM363.394 266.949C363.327 266.814 363.272 266.573 363.229 266.226C362.683 266.793 362.032 267.076 361.274 267.076C360.597 267.076 360.041 266.886 359.605 266.505C359.173 266.12 358.957 265.633 358.957 265.045C358.957 264.33 359.228 263.776 359.77 263.382C360.316 262.984 361.082 262.785 362.068 262.785H363.21V262.246C363.21 261.835 363.087 261.509 362.842 261.268C362.597 261.023 362.235 260.9 361.757 260.9C361.338 260.9 360.986 261.006 360.703 261.217C360.419 261.429 360.278 261.685 360.278 261.985H359.097C359.097 261.643 359.218 261.313 359.459 260.995C359.704 260.674 360.034 260.42 360.449 260.234C360.868 260.047 361.327 259.954 361.826 259.954C362.618 259.954 363.238 260.153 363.686 260.551C364.135 260.944 364.368 261.488 364.385 262.182V265.343C364.385 265.974 364.465 266.475 364.626 266.848V266.949H363.394ZM361.446 266.054C361.814 266.054 362.163 265.959 362.493 265.769C362.823 265.578 363.062 265.331 363.21 265.026V263.617H362.29C360.851 263.617 360.132 264.038 360.132 264.88C360.132 265.248 360.254 265.536 360.5 265.743C360.745 265.951 361.06 266.054 361.446 266.054ZM367.819 258.418V260.081H369.101V260.989H367.819V265.248C367.819 265.523 367.876 265.731 367.99 265.87C368.104 266.006 368.299 266.073 368.574 266.073C368.709 266.073 368.896 266.048 369.133 265.997V266.949C368.824 267.034 368.523 267.076 368.231 267.076C367.706 267.076 367.311 266.918 367.044 266.6C366.778 266.283 366.644 265.832 366.644 265.248V260.989H365.394V260.081H366.644V258.418H367.819Z" fill="black"/>
<path d="M420.333 265.128C420.333 264.81 420.213 264.565 419.972 264.391C419.735 264.214 419.318 264.061 418.721 263.934C418.129 263.807 417.657 263.655 417.306 263.477C416.959 263.299 416.701 263.088 416.531 262.842C416.366 262.597 416.284 262.305 416.284 261.966C416.284 261.404 416.521 260.928 416.995 260.538C417.473 260.149 418.082 259.954 418.823 259.954C419.601 259.954 420.232 260.155 420.714 260.557C421.201 260.959 421.444 261.473 421.444 262.1H420.264C420.264 261.778 420.126 261.501 419.851 261.268C419.58 261.035 419.237 260.919 418.823 260.919C418.395 260.919 418.061 261.012 417.82 261.198C417.579 261.385 417.458 261.628 417.458 261.928C417.458 262.212 417.57 262.426 417.794 262.569C418.019 262.713 418.423 262.851 419.007 262.982C419.595 263.113 420.071 263.27 420.435 263.452C420.799 263.634 421.068 263.854 421.241 264.112C421.419 264.366 421.508 264.677 421.508 265.045C421.508 265.659 421.262 266.152 420.771 266.524C420.281 266.892 419.644 267.076 418.861 267.076C418.311 267.076 417.824 266.979 417.401 266.784C416.978 266.59 416.646 266.319 416.404 265.972C416.167 265.621 416.049 265.242 416.049 264.836H417.223C417.244 265.229 417.401 265.542 417.693 265.775C417.989 266.004 418.378 266.118 418.861 266.118C419.305 266.118 419.661 266.029 419.927 265.851C420.198 265.669 420.333 265.428 420.333 265.128ZM427.278 266.27C426.821 266.808 426.15 267.076 425.266 267.076C424.534 267.076 423.975 266.865 423.59 266.442C423.209 266.014 423.016 265.384 423.012 264.55V260.081H424.187V264.518C424.187 265.559 424.61 266.08 425.456 266.08C426.353 266.08 426.95 265.745 427.246 265.077V260.081H428.42V266.949H427.303L427.278 266.27ZM431.321 260.081L431.359 260.944C431.884 260.284 432.57 259.954 433.416 259.954C434.868 259.954 435.6 260.773 435.612 262.411V266.949H434.438V262.404C434.434 261.909 434.319 261.543 434.095 261.306C433.875 261.069 433.53 260.951 433.061 260.951C432.68 260.951 432.345 261.052 432.058 261.255C431.77 261.459 431.546 261.725 431.385 262.055V266.949H430.21V260.081H431.321Z" fill="black"/>
<path d="M37.2021 234H428.202" stroke="#F5F5F7"/>
<path d="M37.2332 189H428.233" stroke="#F5F5F7"/>
<path d="M37.2021 144H428.202" stroke="#F5F5F7"/>
<path d="M37.2021 99H428.202" stroke="#F5F5F7"/>
<path d="M37.2021 54H428.202" stroke="#F5F5F7"/>
<path d="M37.2021 9H428.202" stroke="#F5F5F7"/>
<g filter="url(#filter1_d_1_44)">
<path d="M112.845 166.199C112.845 169.252 110.37 171.728 107.316 171.728C104.263 171.728 101.787 169.252 101.787 166.199C101.787 163.145 104.263 160.67 107.316 160.67C110.37 160.67 112.845 163.145 112.845 166.199Z" fill="black"/>
</g>
<g opacity="0.3" filter="url(#filter2_f_1_44)">
<path fill-rule="evenodd" clip-rule="evenodd" d="M96.1003 138.684H131.436C133.646 138.684 135.436 140.475 135.436 142.684V152.542C135.436 154.752 133.646 156.542 131.436 156.542H118.259L117.611 157.066C117.464 157.184 117.255 157.184 117.108 157.066L116.46 156.542H96.1003C93.8912 156.542 92.1003 154.752 92.1003 152.542V142.684C92.1003 140.475 93.8912 138.684 96.1003 138.684Z" fill="black"/>
</g>
<path fill-rule="evenodd" clip-rule="evenodd" d="M85.9961 129.281H127.996C130.205 129.281 131.996 131.071 131.996 133.281V147.281C131.996 149.49 130.205 151.281 127.996 151.281H113.996L107.256 157.057C107.107 157.186 106.886 157.186 106.736 157.057L99.9961 151.281H85.9961C83.787 151.281 81.9961 149.49 81.9961 147.281V133.281C81.9961 131.071 83.787 129.281 85.9961 129.281Z" fill="white"/>
<path d="M96.5639 138.037L95.1639 138.471C95.0239 138.377 94.8839 138.247 94.7439 138.079C94.6039 137.911 94.5339 137.677 94.5339 137.379C94.5339 136.819 94.8746 136.427 95.5559 136.203L97.1239 135.671H97.6419C98.0433 135.671 98.3606 135.787 98.5939 136.021C98.8273 136.254 98.9439 136.571 98.9439 136.973V144.267C98.8413 144.285 98.6873 144.309 98.4819 144.337C98.2859 144.374 98.0853 144.393 97.8799 144.393C97.6746 144.393 97.4879 144.379 97.3199 144.351C97.1613 144.323 97.0259 144.267 96.9139 144.183C96.8019 144.099 96.7133 143.987 96.6479 143.847C96.5919 143.697 96.5639 143.506 96.5639 143.273V138.037ZM102.176 145.303C102.017 145.508 101.845 145.657 101.658 145.751C101.481 145.844 101.261 145.891 101 145.891C100.589 145.891 100.239 145.774 99.95 145.541C100.155 144.962 100.328 144.369 100.468 143.763C100.608 143.147 100.725 142.591 100.818 142.097C100.977 142.013 101.168 141.943 101.392 141.887C101.616 141.821 101.84 141.789 102.064 141.789C102.353 141.789 102.605 141.854 102.82 141.985C103.044 142.115 103.156 142.349 103.156 142.685C103.156 142.881 103.128 143.1 103.072 143.343C103.016 143.576 102.941 143.814 102.848 144.057C102.755 144.29 102.647 144.519 102.526 144.743C102.414 144.967 102.297 145.153 102.176 145.303ZM107.194 144.505C106.765 144.505 106.373 144.472 106.018 144.407C105.673 144.341 105.374 144.243 105.122 144.113C104.87 143.982 104.674 143.823 104.534 143.637C104.394 143.441 104.324 143.217 104.324 142.965C104.324 142.703 104.399 142.484 104.548 142.307C104.698 142.129 104.866 141.989 105.052 141.887C105.314 142.083 105.594 142.255 105.892 142.405C106.191 142.545 106.569 142.615 107.026 142.615C107.465 142.615 107.778 142.517 107.964 142.321C108.151 142.125 108.244 141.887 108.244 141.607C108.244 141.336 108.16 141.112 107.992 140.935C107.834 140.757 107.554 140.669 107.152 140.669C106.9 140.669 106.69 140.697 106.522 140.753C106.354 140.809 106.163 140.888 105.948 140.991C105.491 140.972 105.127 140.851 104.856 140.627C104.595 140.393 104.464 140.039 104.464 139.563C104.464 139.535 104.464 139.502 104.464 139.465C104.464 139.418 104.469 139.329 104.478 139.199L104.646 137.071C104.674 136.669 104.8 136.352 105.024 136.119C105.248 135.885 105.561 135.769 105.962 135.769H109.994C110.05 135.871 110.106 136.007 110.162 136.175C110.218 136.343 110.246 136.52 110.246 136.707C110.246 137.061 110.167 137.313 110.008 137.463C109.85 137.612 109.649 137.687 109.406 137.687H106.718L106.62 139.003C106.798 138.956 106.975 138.914 107.152 138.877C107.339 138.839 107.572 138.821 107.852 138.821C108.338 138.821 108.758 138.895 109.112 139.045C109.467 139.185 109.756 139.381 109.98 139.633C110.214 139.885 110.382 140.179 110.484 140.515C110.596 140.851 110.652 141.21 110.652 141.593C110.652 141.975 110.587 142.344 110.456 142.699C110.326 143.053 110.12 143.366 109.84 143.637C109.56 143.898 109.201 144.108 108.762 144.267C108.333 144.425 107.81 144.505 107.194 144.505ZM118.657 144.267C118.563 144.295 118.414 144.323 118.209 144.351C118.013 144.379 117.807 144.393 117.593 144.393C117.387 144.393 117.201 144.379 117.033 144.351C116.874 144.323 116.739 144.267 116.627 144.183C116.515 144.099 116.426 143.987 116.361 143.847C116.305 143.697 116.277 143.506 116.277 143.273V140.165C116.277 139.782 116.179 139.516 115.983 139.367C115.796 139.208 115.563 139.129 115.283 139.129C115.096 139.129 114.919 139.152 114.751 139.199C114.583 139.245 114.447 139.301 114.345 139.367V144.267C114.251 144.295 114.102 144.323 113.897 144.351C113.701 144.379 113.495 144.393 113.281 144.393C113.075 144.393 112.889 144.379 112.721 144.351C112.562 144.323 112.427 144.267 112.315 144.183C112.203 144.099 112.114 143.987 112.049 143.847C111.993 143.697 111.965 143.506 111.965 143.273V135.153C112.067 135.134 112.217 135.111 112.413 135.083C112.618 135.045 112.823 135.027 113.029 135.027C113.234 135.027 113.416 135.041 113.575 135.069C113.743 135.097 113.883 135.153 113.995 135.237C114.107 135.321 114.191 135.437 114.247 135.587C114.312 135.727 114.345 135.913 114.345 136.147V137.519C114.466 137.472 114.648 137.421 114.891 137.365C115.143 137.299 115.418 137.267 115.717 137.267C116.641 137.267 117.359 137.5 117.873 137.967C118.395 138.424 118.657 139.11 118.657 140.025V144.267Z" fill="black"/>
<g filter="url(#filter3_d_1_44)">
<path d="M180.213 122.752C180.213 125.805 177.738 128.281 174.684 128.281C171.631 128.281 169.155 125.805 169.155 122.752C169.155 119.698 171.631 117.223 174.684 117.223C177.738 117.223 180.213 119.698 180.213 122.752Z" fill="black"/>
</g>
<g opacity="0.3" filter="url(#filter4_f_1_44)">
<path fill-rule="evenodd" clip-rule="evenodd" d="M163.469 95.237H198.805C201.014 95.237 202.805 97.0279 202.805 99.237V109.095C202.805 111.304 201.014 113.095 198.805 113.095H185.627L184.979 113.619C184.832 113.737 184.623 113.737 184.476 113.619L183.828 113.095H163.469C161.259 113.095 159.469 111.304 159.469 109.095V99.237C159.469 97.0279 161.259 95.237 163.469 95.237Z" fill="black"/>
</g>
<path fill-rule="evenodd" clip-rule="evenodd" d="M153.364 85.8333H195.364C197.573 85.8333 199.364 87.6241 199.364 89.8333V103.833C199.364 106.042 197.573 107.833 195.364 107.833H181.364L174.625 113.61C174.475 113.739 174.254 113.739 174.104 113.61L167.364 107.833H153.364C151.155 107.833 149.364 106.042 149.364 103.833V89.8333C149.364 87.6241 151.155 85.8333 153.364 85.8333Z" fill="white"/>
<path d="M164.193 92.1113C164.725 92.1113 165.196 92.1813 165.607 92.3213C166.017 92.4519 166.367 92.6339 166.657 92.8673C166.946 93.1006 167.165 93.3759 167.315 93.6933C167.464 94.0106 167.539 94.3513 167.539 94.7153C167.539 95.6953 166.983 96.6286 165.873 97.5153L164.039 98.9853H167.399C167.455 99.0879 167.506 99.2186 167.553 99.3773C167.609 99.5359 167.637 99.7086 167.637 99.8953C167.637 100.231 167.562 100.474 167.413 100.623C167.263 100.763 167.067 100.833 166.825 100.833H161.967C161.761 100.693 161.598 100.516 161.477 100.301C161.365 100.077 161.309 99.8159 161.309 99.5173C161.309 99.1999 161.374 98.9339 161.505 98.7193C161.635 98.4953 161.78 98.3179 161.939 98.1873L163.871 96.5353C164.113 96.3299 164.314 96.1479 164.473 95.9893C164.631 95.8213 164.757 95.6719 164.851 95.5413C164.953 95.4106 165.023 95.2893 165.061 95.1773C165.107 95.0653 165.131 94.9579 165.131 94.8553C165.131 94.5939 165.014 94.3886 164.781 94.2393C164.557 94.0899 164.277 94.0153 163.941 94.0153C163.567 94.0153 163.231 94.0759 162.933 94.1973C162.643 94.3093 162.401 94.4306 162.205 94.5613C162.046 94.4493 161.915 94.3093 161.813 94.1413C161.71 93.9733 161.659 93.7773 161.659 93.5533C161.659 93.0679 161.887 92.7086 162.345 92.4753C162.802 92.2326 163.418 92.1113 164.193 92.1113ZM170.488 101.855C170.329 102.061 170.156 102.21 169.97 102.303C169.792 102.397 169.573 102.443 169.312 102.443C168.901 102.443 168.551 102.327 168.262 102.093C168.467 101.515 168.64 100.922 168.78 100.315C168.92 99.6993 169.036 99.1439 169.13 98.6493C169.288 98.5653 169.48 98.4953 169.704 98.4393C169.928 98.3739 170.152 98.3413 170.376 98.3413C170.665 98.3413 170.917 98.4066 171.132 98.5373C171.356 98.6679 171.468 98.9013 171.468 99.2373C171.468 99.4333 171.44 99.6526 171.384 99.8953C171.328 100.129 171.253 100.367 171.16 100.609C171.066 100.843 170.959 101.071 170.838 101.295C170.726 101.519 170.609 101.706 170.488 101.855ZM175.506 101.057C175.077 101.057 174.685 101.025 174.33 100.959C173.985 100.894 173.686 100.796 173.434 100.665C173.182 100.535 172.986 100.376 172.846 100.189C172.706 99.9933 172.636 99.7693 172.636 99.5173C172.636 99.2559 172.711 99.0366 172.86 98.8593C173.009 98.6819 173.177 98.5419 173.364 98.4393C173.625 98.6353 173.905 98.8079 174.204 98.9573C174.503 99.0973 174.881 99.1673 175.338 99.1673C175.777 99.1673 176.089 99.0693 176.276 98.8733C176.463 98.6773 176.556 98.4393 176.556 98.1593C176.556 97.8886 176.472 97.6646 176.304 97.4873C176.145 97.3099 175.865 97.2213 175.464 97.2213C175.212 97.2213 175.002 97.2493 174.834 97.3053C174.666 97.3613 174.475 97.4406 174.26 97.5433C173.803 97.5246 173.439 97.4033 173.168 97.1793C172.907 96.9459 172.776 96.5913 172.776 96.1153C172.776 96.0873 172.776 96.0546 172.776 96.0173C172.776 95.9706 172.781 95.8819 172.79 95.7513L172.958 93.6233C172.986 93.2219 173.112 92.9046 173.336 92.6713C173.56 92.4379 173.873 92.3213 174.274 92.3213H178.306C178.362 92.4239 178.418 92.5593 178.474 92.7273C178.53 92.8953 178.558 93.0726 178.558 93.2593C178.558 93.6139 178.479 93.8659 178.32 94.0153C178.161 94.1646 177.961 94.2393 177.718 94.2393H175.03L174.932 95.5553C175.109 95.5086 175.287 95.4666 175.464 95.4293C175.651 95.3919 175.884 95.3733 176.164 95.3733C176.649 95.3733 177.069 95.4479 177.424 95.5973C177.779 95.7373 178.068 95.9333 178.292 96.1853C178.525 96.4373 178.693 96.7313 178.796 97.0673C178.908 97.4033 178.964 97.7626 178.964 98.1453C178.964 98.5279 178.899 98.8966 178.768 99.2513C178.637 99.6059 178.432 99.9186 178.152 100.189C177.872 100.451 177.513 100.661 177.074 100.819C176.645 100.978 176.122 101.057 175.506 101.057ZM186.968 100.819C186.875 100.847 186.726 100.875 186.52 100.903C186.324 100.931 186.119 100.945 185.904 100.945C185.699 100.945 185.512 100.931 185.344 100.903C185.186 100.875 185.05 100.819 184.938 100.735C184.826 100.651 184.738 100.539 184.672 100.399C184.616 100.25 184.588 100.059 184.588 99.8253V96.7173C184.588 96.3346 184.49 96.0686 184.294 95.9193C184.108 95.7606 183.874 95.6813 183.594 95.6813C183.408 95.6813 183.23 95.7046 183.062 95.7513C182.894 95.7979 182.759 95.8539 182.656 95.9193V100.819C182.563 100.847 182.414 100.875 182.208 100.903C182.012 100.931 181.807 100.945 181.592 100.945C181.387 100.945 181.2 100.931 181.032 100.903C180.874 100.875 180.738 100.819 180.626 100.735C180.514 100.651 180.426 100.539 180.36 100.399C180.304 100.25 180.276 100.059 180.276 99.8253V91.7053C180.379 91.6866 180.528 91.6633 180.724 91.6353C180.93 91.5979 181.135 91.5793 181.34 91.5793C181.546 91.5793 181.728 91.5933 181.886 91.6213C182.054 91.6493 182.194 91.7053 182.306 91.7893C182.418 91.8733 182.502 91.9899 182.558 92.1393C182.624 92.2793 182.656 92.4659 182.656 92.6993V94.0713C182.778 94.0246 182.96 93.9733 183.202 93.9173C183.454 93.8519 183.73 93.8193 184.028 93.8193C184.952 93.8193 185.671 94.0526 186.184 94.5193C186.707 94.9766 186.968 95.6626 186.968 96.5773V100.819Z" fill="black"/>
<g filter="url(#filter5_d_1_44)">
<path d="M307.981 53.0437C307.981 56.0973 305.506 58.5727 302.452 58.5727C299.399 58.5727 296.923 56.0973 296.923 53.0437C296.923 49.9902 299.399 47.5148 302.452 47.5148C305.506 47.5148 307.981 49.9902 307.981 53.0437Z" fill="black"/>
</g>
<g opacity="0.3" filter="url(#filter6_f_1_44)">
<path fill-rule="evenodd" clip-rule="evenodd" d="M291.237 25.5291H326.573C328.782 25.5291 330.573 27.32 330.573 29.5291V39.3873C330.573 41.5964 328.782 43.3873 326.573 43.3873H313.395L312.747 43.9108C312.6 44.0292 312.391 44.0292 312.244 43.9108L311.596 43.3873H291.237C289.027 43.3873 287.237 41.5964 287.237 39.3873V29.5291C287.237 27.32 289.027 25.5291 291.237 25.5291Z" fill="black"/>
</g>
<path fill-rule="evenodd" clip-rule="evenodd" d="M281.132 16.1254H323.132C325.341 16.1254 327.132 17.9163 327.132 20.1254V34.1254C327.132 36.3345 325.341 38.1254 323.132 38.1254H309.132L302.393 43.9023C302.243 44.0307 302.022 44.0307 301.872 43.9023L295.132 38.1254H281.132C278.923 38.1254 277.132 36.3345 277.132 34.1254V20.1254C277.132 17.9163 278.923 16.1254 281.132 16.1254Z" fill="white"/>
<path d="M297.596 22.7114C297.774 22.6554 297.974 22.6087 298.198 22.5714C298.432 22.5341 298.642 22.5154 298.828 22.5154C299.043 22.5154 299.248 22.5387 299.444 22.5854C299.65 22.6227 299.832 22.6927 299.99 22.7954C300.149 22.8887 300.275 23.0194 300.368 23.1874C300.462 23.3554 300.508 23.5654 300.508 23.8174V27.5414H301.754C301.81 27.6441 301.866 27.7794 301.922 27.9474C301.978 28.1154 302.006 28.2927 302.006 28.4794C302.006 28.8341 301.927 29.0861 301.768 29.2354C301.61 29.3847 301.409 29.4594 301.166 29.4594H300.508V31.1114C300.406 31.1301 300.252 31.1534 300.046 31.1814C299.841 31.2187 299.645 31.2374 299.458 31.2374C299.253 31.2374 299.071 31.2281 298.912 31.2094C298.754 31.1907 298.618 31.1487 298.506 31.0834C298.404 31.0087 298.324 30.9061 298.268 30.7754C298.212 30.6447 298.184 30.4674 298.184 30.2434V29.4594H294.67C294.456 29.3474 294.269 29.1841 294.11 28.9694C293.961 28.7454 293.886 28.4747 293.886 28.1574C293.886 27.9801 293.91 27.7841 293.956 27.5694C294.003 27.3547 294.082 27.1681 294.194 27.0094L297.596 22.7114ZM298.31 24.9094H298.268L296.406 27.5414H298.31V24.9094ZM309.731 31.1114C309.637 31.1394 309.488 31.1674 309.283 31.1954C309.087 31.2234 308.881 31.2374 308.667 31.2374C308.461 31.2374 308.275 31.2234 308.107 31.1954C307.948 31.1674 307.813 31.1114 307.701 31.0274C307.589 30.9434 307.5 30.8314 307.435 30.6914C307.379 30.5421 307.351 30.3507 307.351 30.1174V27.0094C307.351 26.6267 307.253 26.3607 307.057 26.2114C306.87 26.0527 306.637 25.9734 306.357 25.9734C306.17 25.9734 305.993 25.9967 305.825 26.0434C305.657 26.0901 305.521 26.1461 305.419 26.2114V31.1114C305.325 31.1394 305.176 31.1674 304.971 31.1954C304.775 31.2234 304.569 31.2374 304.355 31.2374C304.149 31.2374 303.963 31.2234 303.795 31.1954C303.636 31.1674 303.501 31.1114 303.389 31.0274C303.277 30.9434 303.188 30.8314 303.123 30.6914C303.067 30.5421 303.039 30.3507 303.039 30.1174V21.9974C303.141 21.9787 303.291 21.9554 303.487 21.9274C303.692 21.8901 303.897 21.8714 304.103 21.8714C304.308 21.8714 304.49 21.8854 304.649 21.9134C304.817 21.9414 304.957 21.9974 305.069 22.0814C305.181 22.1654 305.265 22.2821 305.321 22.4314C305.386 22.5714 305.419 22.7581 305.419 22.9914V24.3634C305.54 24.3167 305.722 24.2654 305.965 24.2094C306.217 24.1441 306.492 24.1114 306.791 24.1114C307.715 24.1114 308.433 24.3447 308.947 24.8114C309.469 25.2687 309.731 25.9547 309.731 26.8694V31.1114Z" fill="black"/>
<path d="M36.471 233.469C36.0896 233.868 36.1044 234.501 36.5039 234.883C36.9034 235.264 37.5364 235.249 37.9177 234.85L36.471 233.469ZM242.406 190.798C248.82 190.798 253.985 188.549 258.145 184.622C262.279 180.718 265.385 175.194 267.799 168.678C272.622 155.661 274.798 138.36 276.678 121.21C278.565 103.988 280.155 86.9225 283.761 74.1435C285.562 67.7572 287.841 62.5466 290.835 58.9473C293.798 55.3862 297.454 53.4041 302.131 53.4041V51.4041C296.78 51.4041 292.586 53.7156 289.298 57.6682C286.041 61.5827 283.668 67.106 281.836 73.6004C278.173 86.5827 276.567 103.866 274.69 120.992C272.804 138.19 270.646 155.238 265.924 167.983C263.566 174.347 260.596 179.557 256.772 183.167C252.973 186.754 248.296 188.798 242.406 188.798V190.798ZM302.131 53.4041C311.456 53.4041 317.243 56.1833 321.359 60.2662C325.534 64.4074 328.065 69.9495 330.743 75.7124C333.389 81.4082 336.176 87.3097 340.892 91.7535C345.658 96.2452 352.307 99.1779 362.533 99.1779V97.1779C352.738 97.1779 346.604 94.3889 342.263 90.298C337.872 86.1592 335.227 80.6173 332.557 74.8696C329.917 69.1891 327.245 63.2878 322.767 58.8463C318.231 54.3467 311.916 51.4041 302.131 51.4041V53.4041ZM362.533 99.1779C382.058 99.1779 392.178 110.208 400.467 121.51C404.582 127.121 408.32 132.918 412.48 137.246C416.683 141.618 421.465 144.66 427.768 144.66V142.66C422.213 142.66 417.918 140.016 413.922 135.86C409.885 131.66 406.304 126.087 402.08 120.327C393.69 108.889 383.05 97.1779 362.533 97.1779V99.1779ZM174.94 123.09C182.537 123.09 188.551 127.088 193.835 133.316C199.137 139.565 203.592 147.924 208.085 156.412C212.55 164.847 217.055 173.414 222.423 179.859C227.807 186.322 234.181 190.798 242.406 190.798V188.798C235.016 188.798 229.151 184.811 223.96 178.579C218.753 172.328 214.347 163.968 209.852 155.476C205.385 147.037 200.83 138.469 195.36 132.022C189.873 125.555 183.352 121.09 174.94 121.09V123.09ZM37.9177 234.85C41.6081 230.983 45.7432 224.801 50.3418 217.814C54.9639 210.792 60.0907 202.897 65.8113 195.476C77.3027 180.569 90.9302 167.933 107.225 167.933V165.933C89.8876 165.933 75.7287 179.336 64.2273 194.255C58.4515 201.748 53.2802 209.712 48.6712 216.715C44.0386 223.753 40.0095 229.761 36.471 233.469L37.9177 234.85ZM107.225 167.933C118.377 167.933 126.343 165.077 132.489 160.743C138.61 156.428 142.858 150.691 146.638 145.069C150.453 139.397 153.746 133.926 158.032 129.819C162.256 125.771 167.413 123.09 174.94 123.09V121.09C166.838 121.09 161.199 124.014 156.649 128.375C152.161 132.675 148.703 138.415 144.978 143.953C141.219 149.543 137.14 155.017 131.337 159.109C125.558 163.183 118.003 165.933 107.225 165.933V167.933Z" fill="black"/>
<g filter="url(#filter7_d_1_44)">
<path d="M42.8609 232.24C42.8609 235.294 40.3855 237.769 37.332 237.769C34.2784 237.769 31.803 235.294 31.803 232.24C31.803 229.187 34.2784 226.711 37.332 226.711C40.3855 226.711 42.8609 229.187 42.8609 232.24Z" fill="black"/>
</g>
<g opacity="0.3" filter="url(#filter8_f_1_44)">
<path fill-rule="evenodd" clip-rule="evenodd" d="M26.1162 204.726H61.4523C63.6614 204.726 65.4523 206.516 65.4523 208.726V218.584C65.4523 220.793 63.6614 222.584 61.4523 222.584H48.2747L47.6266 223.107C47.4799 223.226 47.2705 223.226 47.1239 223.107L46.4757 222.584H26.1162C23.9071 222.584 22.1162 220.793 22.1162 218.584V208.726C22.1162 206.516 23.9071 204.726 26.1162 204.726Z" fill="black"/>
</g>
<path fill-rule="evenodd" clip-rule="evenodd" d="M16.012 195.322H58.012C60.2211 195.322 62.012 197.113 62.012 199.322V213.322C62.012 215.531 60.2211 217.322 58.012 217.322H44.012L37.2723 223.099C37.1225 223.227 36.9014 223.227 36.7516 223.099L30.012 217.322H16.012C13.8028 217.322 12.012 215.531 12.012 213.322V199.322C12.012 197.113 13.8028 195.322 16.012 195.322Z" fill="white"/>
<path d="M34.0721 206.066C34.0721 205.245 33.9508 204.61 33.7081 204.162C33.4748 203.714 33.1388 203.49 32.7001 203.49C32.2615 203.49 31.9255 203.714 31.6921 204.162C31.4681 204.61 31.3561 205.245 31.3561 206.066C31.3561 206.887 31.4681 207.527 31.6921 207.984C31.9255 208.432 32.2615 208.656 32.7001 208.656C33.1388 208.656 33.4748 208.432 33.7081 207.984C33.9508 207.527 34.0721 206.887 34.0721 206.066ZM36.4661 206.066C36.4661 206.785 36.3728 207.424 36.1861 207.984C35.9995 208.544 35.7381 209.015 35.4021 209.398C35.0755 209.771 34.6788 210.056 34.2121 210.252C33.7548 210.448 33.2555 210.546 32.7141 210.546C32.1635 210.546 31.6548 210.448 31.1881 210.252C30.7308 210.056 30.3341 209.771 29.9981 209.398C29.6715 209.015 29.4148 208.544 29.2281 207.984C29.0508 207.424 28.9621 206.785 28.9621 206.066C28.9621 205.347 29.0508 204.713 29.2281 204.162C29.4148 203.602 29.6715 203.135 29.9981 202.762C30.3341 202.379 30.7308 202.09 31.1881 201.894C31.6548 201.698 32.1635 201.6 32.7141 201.6C33.2555 201.6 33.7548 201.698 34.2121 201.894C34.6788 202.09 35.0755 202.379 35.4021 202.762C35.7381 203.135 35.9995 203.602 36.1861 204.162C36.3728 204.713 36.4661 205.347 36.4661 206.066ZM44.6104 210.308C44.517 210.336 44.3677 210.364 44.1624 210.392C43.9664 210.42 43.761 210.434 43.5464 210.434C43.341 210.434 43.1544 210.42 42.9864 210.392C42.8277 210.364 42.6924 210.308 42.5804 210.224C42.4684 210.14 42.3797 210.028 42.3144 209.888C42.2584 209.739 42.2304 209.547 42.2304 209.314V206.206C42.2304 205.823 42.1324 205.557 41.9364 205.408C41.7497 205.249 41.5164 205.17 41.2364 205.17C41.0497 205.17 40.8724 205.193 40.7044 205.24C40.5364 205.287 40.401 205.343 40.2984 205.408V210.308C40.205 210.336 40.0557 210.364 39.8504 210.392C39.6544 210.42 39.449 210.434 39.2344 210.434C39.029 210.434 38.8424 210.42 38.6744 210.392C38.5157 210.364 38.3804 210.308 38.2684 210.224C38.1564 210.14 38.0677 210.028 38.0024 209.888C37.9464 209.739 37.9184 209.547 37.9184 209.314V201.194C38.021 201.175 38.1704 201.152 38.3664 201.124C38.5717 201.087 38.777 201.068 38.9824 201.068C39.1877 201.068 39.3697 201.082 39.5284 201.11C39.6964 201.138 39.8364 201.194 39.9484 201.278C40.0604 201.362 40.1444 201.479 40.2004 201.628C40.2657 201.768 40.2984 201.955 40.2984 202.188V203.56C40.4197 203.513 40.6017 203.462 40.8444 203.406C41.0964 203.341 41.3717 203.308 41.6704 203.308C42.5944 203.308 43.313 203.541 43.8264 204.008C44.349 204.465 44.6104 205.151 44.6104 206.066V210.308Z" fill="black"/>
<g filter="url(#filter9_d_1_44)">
<path d="M247.582 189.478C247.582 192.531 245.107 195.006 242.053 195.006C239 195.006 236.524 192.531 236.524 189.478C236.524 186.424 239 183.949 242.053 183.949C245.107 183.949 247.582 186.424 247.582 189.478Z" fill="black"/>
</g>
<g opacity="0.3" filter="url(#filter10_f_1_44)">
<path fill-rule="evenodd" clip-rule="evenodd" d="M230.837 161.963H266.173C268.383 161.963 270.173 163.754 270.173 165.963V175.821C270.173 178.03 268.383 179.821 266.173 179.821H252.996L252.348 180.345C252.201 180.463 251.992 180.463 251.845 180.345L251.197 179.821H230.837C228.628 179.821 226.837 178.03 226.837 175.821V165.963C226.837 163.754 228.628 161.963 230.837 161.963Z" fill="black"/>
</g>
<path fill-rule="evenodd" clip-rule="evenodd" d="M220.733 152.559H262.733C264.942 152.559 266.733 154.35 266.733 156.559V170.559C266.733 172.768 264.942 174.559 262.733 174.559H248.733L241.993 180.336C241.844 180.464 241.623 180.464 241.473 180.336L234.733 174.559H220.733C218.524 174.559 216.733 172.768 216.733 170.559V156.559C216.733 154.35 218.524 152.559 220.733 152.559Z" fill="white"/>
<path d="M236.86 161.315L235.46 161.749C235.32 161.656 235.18 161.525 235.04 161.357C234.9 161.189 234.83 160.956 234.83 160.657C234.83 160.097 235.171 159.705 235.852 159.481L237.42 158.949H237.938C238.34 158.949 238.657 159.066 238.89 159.299C239.124 159.532 239.24 159.85 239.24 160.251V167.545C239.138 167.564 238.984 167.587 238.778 167.615C238.582 167.652 238.382 167.671 238.176 167.671C237.971 167.671 237.784 167.657 237.616 167.629C237.458 167.601 237.322 167.545 237.21 167.461C237.098 167.377 237.01 167.265 236.944 167.125C236.888 166.976 236.86 166.784 236.86 166.551V161.315ZM247.834 167.545C247.741 167.573 247.592 167.601 247.386 167.629C247.19 167.657 246.985 167.671 246.77 167.671C246.565 167.671 246.378 167.657 246.21 167.629C246.052 167.601 245.916 167.545 245.804 167.461C245.692 167.377 245.604 167.265 245.538 167.125C245.482 166.976 245.454 166.784 245.454 166.551V163.443C245.454 163.06 245.356 162.794 245.16 162.645C244.974 162.486 244.74 162.407 244.46 162.407C244.274 162.407 244.096 162.43 243.928 162.477C243.76 162.524 243.625 162.58 243.522 162.645V167.545C243.429 167.573 243.28 167.601 243.074 167.629C242.878 167.657 242.673 167.671 242.458 167.671C242.253 167.671 242.066 167.657 241.898 167.629C241.74 167.601 241.604 167.545 241.492 167.461C241.38 167.377 241.292 167.265 241.226 167.125C241.17 166.976 241.142 166.784 241.142 166.551V158.431C241.245 158.412 241.394 158.389 241.59 158.361C241.796 158.324 242.001 158.305 242.206 158.305C242.412 158.305 242.594 158.319 242.752 158.347C242.92 158.375 243.06 158.431 243.172 158.515C243.284 158.599 243.368 158.716 243.424 158.865C243.49 159.005 243.522 159.192 243.522 159.425V160.797C243.644 160.75 243.826 160.699 244.068 160.643C244.32 160.578 244.596 160.545 244.894 160.545C245.818 160.545 246.537 160.778 247.05 161.245C247.573 161.702 247.834 162.388 247.834 163.303V167.545Z" fill="black"/>
<g filter="url(#filter11_d_1_44)">
<path d="M368.381 98.0591C368.381 101.113 365.905 103.588 362.852 103.588C359.798 103.588 357.323 101.113 357.323 98.0591C357.323 95.0056 359.798 92.5302 362.852 92.5302C365.905 92.5302 368.381 95.0056 368.381 98.0591Z" fill="black"/>
</g>
<g opacity="0.3" filter="url(#filter12_f_1_44)">
<path fill-rule="evenodd" clip-rule="evenodd" d="M351.636 70.5445H386.972C389.181 70.5445 390.972 72.3354 390.972 74.5445V84.4027C390.972 86.6118 389.181 88.4027 386.972 88.4027H373.794L373.146 88.9262C373 89.0446 372.79 89.0446 372.644 88.9262L371.996 88.4027H351.636C349.427 88.4027 347.636 86.6118 347.636 84.4027V74.5445C347.636 72.3354 349.427 70.5445 351.636 70.5445Z" fill="black"/>
</g>
<path fill-rule="evenodd" clip-rule="evenodd" d="M341.532 61.1408H383.532C385.741 61.1408 387.532 62.9316 387.532 65.1408V79.1408C387.532 81.3499 385.741 83.1408 383.532 83.1408H369.532L362.792 88.9176C362.642 89.046 362.421 89.046 362.271 88.9176L355.532 83.1408H341.532C339.323 83.1408 337.532 81.3499 337.532 79.1408V65.1408C337.532 62.9316 339.323 61.1408 341.532 61.1408Z" fill="white"/>
<path d="M357.876 67.4188C358.949 67.4188 359.766 67.6428 360.326 68.0908C360.886 68.5294 361.166 69.1221 361.166 69.8688C361.166 70.3168 361.045 70.6994 360.802 71.0168C360.569 71.3248 360.289 71.5581 359.962 71.7168C360.158 71.7914 360.34 71.8848 360.508 71.9968C360.676 72.1088 360.825 72.2488 360.956 72.4168C361.087 72.5848 361.189 72.7808 361.264 73.0048C361.339 73.2288 361.376 73.4901 361.376 73.7888C361.376 74.1901 361.287 74.5494 361.11 74.8668C360.942 75.1841 360.704 75.4548 360.396 75.6788C360.088 75.9028 359.719 76.0708 359.29 76.1828C358.87 76.3041 358.408 76.3648 357.904 76.3648C356.933 76.3648 356.201 76.2294 355.706 75.9588C355.211 75.6881 354.964 75.3428 354.964 74.9228C354.964 74.6708 355.025 74.4561 355.146 74.2788C355.267 74.0921 355.417 73.9474 355.594 73.8448C355.781 73.9754 356.028 74.1154 356.336 74.2648C356.653 74.4048 357.064 74.4748 357.568 74.4748C358.044 74.4748 358.394 74.3908 358.618 74.2228C358.851 74.0548 358.968 73.8354 358.968 73.5648C358.968 73.2941 358.875 73.0888 358.688 72.9488C358.511 72.8088 358.198 72.7388 357.75 72.7388H356.434C356.369 72.6361 356.313 72.5101 356.266 72.3608C356.219 72.2114 356.196 72.0341 356.196 71.8288C356.196 71.6141 356.215 71.4321 356.252 71.2828C356.299 71.1241 356.359 70.9934 356.434 70.8908H357.75C358.422 70.8908 358.758 70.6341 358.758 70.1208C358.758 69.8781 358.651 69.6821 358.436 69.5328C358.221 69.3834 357.899 69.3088 357.47 69.3088C357.087 69.3088 356.751 69.3554 356.462 69.4488C356.173 69.5328 355.935 69.6401 355.748 69.7708C355.589 69.6588 355.459 69.5234 355.356 69.3648C355.253 69.1968 355.202 69.0008 355.202 68.7768C355.202 68.3101 355.445 67.9694 355.93 67.7548C356.415 67.5308 357.064 67.4188 357.876 67.4188ZM369.508 76.1268C369.415 76.1548 369.265 76.1828 369.06 76.2108C368.864 76.2388 368.659 76.2528 368.444 76.2528C368.239 76.2528 368.052 76.2388 367.884 76.2108C367.725 76.1828 367.59 76.1268 367.478 76.0428C367.366 75.9588 367.277 75.8468 367.212 75.7068C367.156 75.5574 367.128 75.3661 367.128 75.1328V72.0248C367.128 71.6421 367.03 71.3761 366.834 71.2268C366.647 71.0681 366.414 70.9888 366.134 70.9888C365.947 70.9888 365.77 71.0121 365.602 71.0588C365.434 71.1054 365.299 71.1614 365.196 71.2268V76.1268C365.103 76.1548 364.953 76.1828 364.748 76.2108C364.552 76.2388 364.347 76.2528 364.132 76.2528C363.927 76.2528 363.74 76.2388 363.572 76.2108C363.413 76.1828 363.278 76.1268 363.166 76.0428C363.054 75.9588 362.965 75.8468 362.9 75.7068C362.844 75.5574 362.816 75.3661 362.816 75.1328V67.0128C362.919 66.9941 363.068 66.9708 363.264 66.9428C363.469 66.9054 363.675 66.8868 363.88 66.8868C364.085 66.8868 364.267 66.9008 364.426 66.9288C364.594 66.9568 364.734 67.0128 364.846 67.0968C364.958 67.1808 365.042 67.2974 365.098 67.4468C365.163 67.5868 365.196 67.7734 365.196 68.0068V69.3788C365.317 69.3321 365.499 69.2808 365.742 69.2248C365.994 69.1594 366.269 69.1268 366.568 69.1268C367.492 69.1268 368.211 69.3601 368.724 69.8268C369.247 70.2841 369.508 70.9701 369.508 71.8848V76.1268Z" fill="black"/>
<g filter="url(#filter13_d_1_44)">
<path d="M434.007 144.277C434.007 147.33 431.531 149.806 428.478 149.806C425.424 149.806 422.949 147.33 422.949 144.277C422.949 141.223 425.424 138.748 428.478 138.748C431.531 138.748 434.007 141.223 434.007 144.277Z" fill="black"/>
</g>
<g opacity="0.3" filter="url(#filter14_f_1_44)">
<path fill-rule="evenodd" clip-rule="evenodd" d="M417.262 116.762H452.598C454.807 116.762 456.598 118.553 456.598 120.762V130.62C456.598 132.829 454.807 134.62 452.598 134.62H439.42L438.772 135.144C438.626 135.262 438.416 135.262 438.27 135.144L437.621 134.62H417.262C415.053 134.62 413.262 132.829 413.262 130.62V120.762C413.262 118.553 415.053 116.762 417.262 116.762Z" fill="black"/>
</g>
<path fill-rule="evenodd" clip-rule="evenodd" d="M407.158 107.358H449.158C451.367 107.358 453.158 109.149 453.158 111.358V125.358C453.158 127.567 451.367 129.358 449.158 129.358H435.158L428.418 135.135C428.268 135.264 428.047 135.264 427.897 135.135L421.158 129.358H407.158C404.949 129.358 403.158 127.567 403.158 125.358V111.358C403.158 109.149 404.949 107.358 407.158 107.358Z" fill="white"/>
<path d="M423.58 113.636C424.112 113.636 424.583 113.706 424.994 113.846C425.404 113.977 425.754 114.159 426.044 114.392C426.333 114.626 426.552 114.901 426.702 115.218C426.851 115.536 426.926 115.876 426.926 116.24C426.926 117.22 426.37 118.154 425.26 119.04L423.426 120.51H426.786C426.842 120.613 426.893 120.744 426.94 120.902C426.996 121.061 427.024 121.234 427.024 121.42C427.024 121.756 426.949 121.999 426.8 122.148C426.65 122.288 426.454 122.358 426.212 122.358H421.354C421.148 122.218 420.985 122.041 420.864 121.826C420.752 121.602 420.696 121.341 420.696 121.042C420.696 120.725 420.761 120.459 420.892 120.244C421.022 120.02 421.167 119.843 421.326 119.712L423.258 118.06C423.5 117.855 423.701 117.673 423.86 117.514C424.018 117.346 424.144 117.197 424.238 117.066C424.34 116.936 424.41 116.814 424.448 116.702C424.494 116.59 424.518 116.483 424.518 116.38C424.518 116.119 424.401 115.914 424.168 115.764C423.944 115.615 423.664 115.54 423.328 115.54C422.954 115.54 422.618 115.601 422.32 115.722C422.03 115.834 421.788 115.956 421.592 116.086C421.433 115.974 421.302 115.834 421.2 115.666C421.097 115.498 421.046 115.302 421.046 115.078C421.046 114.593 421.274 114.234 421.732 114C422.189 113.758 422.805 113.636 423.58 113.636ZM435.168 122.344C435.075 122.372 434.926 122.4 434.72 122.428C434.524 122.456 434.319 122.47 434.104 122.47C433.899 122.47 433.712 122.456 433.544 122.428C433.386 122.4 433.25 122.344 433.138 122.26C433.026 122.176 432.938 122.064 432.872 121.924C432.816 121.775 432.788 121.584 432.788 121.35V118.242C432.788 117.86 432.69 117.594 432.494 117.444C432.308 117.286 432.074 117.206 431.794 117.206C431.608 117.206 431.43 117.23 431.262 117.276C431.094 117.323 430.959 117.379 430.856 117.444V122.344C430.763 122.372 430.614 122.4 430.408 122.428C430.212 122.456 430.007 122.47 429.792 122.47C429.587 122.47 429.4 122.456 429.232 122.428C429.074 122.4 428.938 122.344 428.826 122.26C428.714 122.176 428.626 122.064 428.56 121.924C428.504 121.775 428.476 121.584 428.476 121.35V113.23C428.579 113.212 428.728 113.188 428.924 113.16C429.13 113.123 429.335 113.104 429.54 113.104C429.746 113.104 429.928 113.118 430.086 113.146C430.254 113.174 430.394 113.23 430.506 113.314C430.618 113.398 430.702 113.515 430.758 113.664C430.824 113.804 430.856 113.991 430.856 114.224V115.596C430.978 115.55 431.16 115.498 431.402 115.442C431.654 115.377 431.93 115.344 432.228 115.344C433.152 115.344 433.871 115.578 434.384 116.044C434.907 116.502 435.168 117.188 435.168 118.102V122.344Z" fill="black"/>
</g>
<defs>
<filter id="filter0_dd_1_44" x="0.0484924" y="3.40506" width="460.55" height="271.671" filterUnits="userSpaceOnUse" color-interpolation-filters="sRGB">
<feFlood flood-opacity="0" result="BackgroundImageFix"/>
<feColorMatrix in="SourceAlpha" type="matrix" values="0 0 0 0 0 0 0 0 0 0 0 0 0 0 0 0 0 0 127 0" result="hardAlpha"/>
<feOffset dy="4"/>
<feGaussianBlur stdDeviation="2"/>
<feComposite in2="hardAlpha" operator="out"/>
<feColorMatrix type="matrix" values="0 0 0 0 0 0 0 0 0 0 0 0 0 0 0 0 0 0 0.25 0"/>
<feBlend mode="normal" in2="BackgroundImageFix" result="effect1_dropShadow_1_44"/>
<feColorMatrix in="SourceAlpha" type="matrix" values="0 0 0 0 0 0 0 0 0 0 0 0 0 0 0 0 0 0 127 0" result="hardAlpha"/>
<feOffset dy="4"/>
<feGaussianBlur stdDeviation="2"/>
<feComposite in2="hardAlpha" operator="out"/>
<feColorMatrix type="matrix" values="0 0 0 0 0 0 0 0 0 0 0 0 0 0 0 0 0 0 0.25 0"/>
<feBlend mode="normal" in2="effect1_dropShadow_1_44" result="effect2_dropShadow_1_44"/>
<feBlend mode="normal" in="SourceGraphic" in2="effect2_dropShadow_1_44" result="shape"/>
</filter>
<filter id="filter1_d_1_44" x="99.7872" y="159.67" width="15.0578" height="15.0578" filterUnits="userSpaceOnUse" color-interpolation-filters="sRGB">
<feFlood flood-opacity="0" result="BackgroundImageFix"/>
<feColorMatrix in="SourceAlpha" type="matrix" values="0 0 0 0 0 0 0 0 0 0 0 0 0 0 0 0 0 0 127 0" result="hardAlpha"/>
<feOffset dy="1"/>
<feGaussianBlur stdDeviation="1"/>
<feColorMatrix type="matrix" values="0 0 0 0 0.215686 0 0 0 0 0.317647 0 0 0 0 1 0 0 0 0.2 0"/>
<feBlend mode="normal" in2="BackgroundImageFix" result="effect1_dropShadow_1_44"/>
<feBlend mode="normal" in="SourceGraphic" in2="effect1_dropShadow_1_44" result="shape"/>
</filter>
<filter id="filter2_f_1_44" x="72.1003" y="118.684" width="83.3361" height="58.4705" filterUnits="userSpaceOnUse" color-interpolation-filters="sRGB">
<feFlood flood-opacity="0" result="BackgroundImageFix"/>
<feBlend mode="normal" in="SourceGraphic" in2="BackgroundImageFix" result="shape"/>
<feGaussianBlur stdDeviation="10" result="effect1_foregroundBlur_1_44"/>
</filter>
<filter id="filter3_d_1_44" x="167.155" y="116.223" width="15.0578" height="15.0578" filterUnits="userSpaceOnUse" color-interpolation-filters="sRGB">
<feFlood flood-opacity="0" result="BackgroundImageFix"/>
<feColorMatrix in="SourceAlpha" type="matrix" values="0 0 0 0 0 0 0 0 0 0 0 0 0 0 0 0 0 0 127 0" result="hardAlpha"/>
<feOffset dy="1"/>
<feGaussianBlur stdDeviation="1"/>
<feColorMatrix type="matrix" values="0 0 0 0 0.215686 0 0 0 0 0.317647 0 0 0 0 1 0 0 0 0.2 0"/>
<feBlend mode="normal" in2="BackgroundImageFix" result="effect1_dropShadow_1_44"/>
<feBlend mode="normal" in="SourceGraphic" in2="effect1_dropShadow_1_44" result="shape"/>
</filter>
<filter id="filter4_f_1_44" x="139.469" y="75.237" width="83.3361" height="58.4705" filterUnits="userSpaceOnUse" color-interpolation-filters="sRGB">
<feFlood flood-opacity="0" result="BackgroundImageFix"/>
<feBlend mode="normal" in="SourceGraphic" in2="BackgroundImageFix" result="shape"/>
<feGaussianBlur stdDeviation="10" result="effect1_foregroundBlur_1_44"/>
</filter>
<filter id="filter5_d_1_44" x="294.923" y="46.5148" width="15.0578" height="15.0578" filterUnits="userSpaceOnUse" color-interpolation-filters="sRGB">
<feFlood flood-opacity="0" result="BackgroundImageFix"/>
<feColorMatrix in="SourceAlpha" type="matrix" values="0 0 0 0 0 0 0 0 0 0 0 0 0 0 0 0 0 0 127 0" result="hardAlpha"/>
<feOffset dy="1"/>
<feGaussianBlur stdDeviation="1"/>
<feColorMatrix type="matrix" values="0 0 0 0 0.215686 0 0 0 0 0.317647 0 0 0 0 1 0 0 0 0.2 0"/>
<feBlend mode="normal" in2="BackgroundImageFix" result="effect1_dropShadow_1_44"/>
<feBlend mode="normal" in="SourceGraphic" in2="effect1_dropShadow_1_44" result="shape"/>
</filter>
<filter id="filter6_f_1_44" x="267.237" y="5.52912" width="83.3361" height="58.4705" filterUnits="userSpaceOnUse" color-interpolation-filters="sRGB">
<feFlood flood-opacity="0" result="BackgroundImageFix"/>
<feBlend mode="normal" in="SourceGraphic" in2="BackgroundImageFix" result="shape"/>
<feGaussianBlur stdDeviation="10" result="effect1_foregroundBlur_1_44"/>
</filter>
<filter id="filter7_d_1_44" x="29.803" y="225.711" width="15.0578" height="15.0578" filterUnits="userSpaceOnUse" color-interpolation-filters="sRGB">
<feFlood flood-opacity="0" result="BackgroundImageFix"/>
<feColorMatrix in="SourceAlpha" type="matrix" values="0 0 0 0 0 0 0 0 0 0 0 0 0 0 0 0 0 0 127 0" result="hardAlpha"/>
<feOffset dy="1"/>
<feGaussianBlur stdDeviation="1"/>
<feColorMatrix type="matrix" values="0 0 0 0 0.215686 0 0 0 0 0.317647 0 0 0 0 1 0 0 0 0.2 0"/>
<feBlend mode="normal" in2="BackgroundImageFix" result="effect1_dropShadow_1_44"/>
<feBlend mode="normal" in="SourceGraphic" in2="effect1_dropShadow_1_44" result="shape"/>
</filter>
<filter id="filter8_f_1_44" x="2.11621" y="184.726" width="83.3361" height="58.4705" filterUnits="userSpaceOnUse" color-interpolation-filters="sRGB">
<feFlood flood-opacity="0" result="BackgroundImageFix"/>
<feBlend mode="normal" in="SourceGraphic" in2="BackgroundImageFix" result="shape"/>
<feGaussianBlur stdDeviation="10" result="effect1_foregroundBlur_1_44"/>
</filter>
<filter id="filter9_d_1_44" x="234.524" y="182.949" width="15.0578" height="15.0578" filterUnits="userSpaceOnUse" color-interpolation-filters="sRGB">
<feFlood flood-opacity="0" result="BackgroundImageFix"/>
<feColorMatrix in="SourceAlpha" type="matrix" values="0 0 0 0 0 0 0 0 0 0 0 0 0 0 0 0 0 0 127 0" result="hardAlpha"/>
<feOffset dy="1"/>
<feGaussianBlur stdDeviation="1"/>
<feColorMatrix type="matrix" values="0 0 0 0 0.215686 0 0 0 0 0.317647 0 0 0 0 1 0 0 0 0.2 0"/>
<feBlend mode="normal" in2="BackgroundImageFix" result="effect1_dropShadow_1_44"/>
<feBlend mode="normal" in="SourceGraphic" in2="effect1_dropShadow_1_44" result="shape"/>
</filter>
<filter id="filter10_f_1_44" x="206.837" y="141.963" width="83.3361" height="58.4705" filterUnits="userSpaceOnUse" color-interpolation-filters="sRGB">
<feFlood flood-opacity="0" result="BackgroundImageFix"/>
<feBlend mode="normal" in="SourceGraphic" in2="BackgroundImageFix" result="shape"/>
<feGaussianBlur stdDeviation="10" result="effect1_foregroundBlur_1_44"/>
</filter>
<filter id="filter11_d_1_44" x="355.323" y="91.5302" width="15.0579" height="15.0578" filterUnits="userSpaceOnUse" color-interpolation-filters="sRGB">
<feFlood flood-opacity="0" result="BackgroundImageFix"/>
<feColorMatrix in="SourceAlpha" type="matrix" values="0 0 0 0 0 0 0 0 0 0 0 0 0 0 0 0 0 0 127 0" result="hardAlpha"/>
<feOffset dy="1"/>
<feGaussianBlur stdDeviation="1"/>
<feColorMatrix type="matrix" values="0 0 0 0 0.215686 0 0 0 0 0.317647 0 0 0 0 1 0 0 0 0.2 0"/>
<feBlend mode="normal" in2="BackgroundImageFix" result="effect1_dropShadow_1_44"/>
<feBlend mode="normal" in="SourceGraphic" in2="effect1_dropShadow_1_44" result="shape"/>
</filter>
<filter id="filter12_f_1_44" x="327.636" y="50.5445" width="83.3361" height="58.4705" filterUnits="userSpaceOnUse" color-interpolation-filters="sRGB">
<feFlood flood-opacity="0" result="BackgroundImageFix"/>
<feBlend mode="normal" in="SourceGraphic" in2="BackgroundImageFix" result="shape"/>
<feGaussianBlur stdDeviation="10" result="effect1_foregroundBlur_1_44"/>
</filter>
<filter id="filter13_d_1_44" x="420.949" y="137.748" width="15.0579" height="15.0578" filterUnits="userSpaceOnUse" color-interpolation-filters="sRGB">
<feFlood flood-opacity="0" result="BackgroundImageFix"/>
<feColorMatrix in="SourceAlpha" type="matrix" values="0 0 0 0 0 0 0 0 0 0 0 0 0 0 0 0 0 0 127 0" result="hardAlpha"/>
<feOffset dy="1"/>
<feGaussianBlur stdDeviation="1"/>
<feColorMatrix type="matrix" values="0 0 0 0 0.215686 0 0 0 0 0.317647 0 0 0 0 1 0 0 0 0.2 0"/>
<feBlend mode="normal" in2="BackgroundImageFix" result="effect1_dropShadow_1_44"/>
<feBlend mode="normal" in="SourceGraphic" in2="effect1_dropShadow_1_44" result="shape"/>
</filter>
<filter id="filter14_f_1_44" x="393.262" y="96.7621" width="83.3361" height="58.4705" filterUnits="userSpaceOnUse" color-interpolation-filters="sRGB">
<feFlood flood-opacity="0" result="BackgroundImageFix"/>
<feBlend mode="normal" in="SourceGraphic" in2="BackgroundImageFix" result="shape"/>
<feGaussianBlur stdDeviation="10" result="effect1_foregroundBlur_1_44"/>
</filter>
</defs>
</svg>
